<svg xmlns="http://www.w3.org/2000/svg" viewBox="0 0 512 512">
  <!-- E-Paper display frame with proper padding (10% safe zone) -->
  <rect x="51" y="64" width="410" height="384" rx="20" fill="#000000"/>
  
  <!-- Inner screen area - white e-paper display -->
  <rect x="71" y="84" width="370" height="344" rx="8" fill="#FFFFFF"/>
  
  <!-- Dashboard grid with consistent 12px gaps and visual hierarchy -->
  <!-- Hero tile - primary focal point -->
  <rect x="91" y="104" width="156" height="156" rx="6" fill="#FF0000"/>
  
  <!-- Secondary tiles - right column -->
  <rect x="259" y="104" width="162" height="72" rx="6" fill="#000000"/>
  <rect x="259" y="188" width="162" height="72" rx="6" fill="#000000"/>
  
  <!-- Bottom row - tertiary info tiles -->
  <rect x="91" y="272" width="75" height="60" rx="6" fill="#000000"/>
  <rect x="178" y="272" width="75" height="60" rx="6" fill="#000000"/>
  <rect x="265" y="272" width="75" height="60" rx="6" fill="#000000"/>
  <rect x="352" y="272" width="69" height="60" rx="6" fill="#000000"/>
  
  <!-- Status bar - bottom accent -->
  <rect x="91" y="344" width="330" height="24" rx="4" fill="#FF0000"/>
  <rect x="91" y="380" width="160" height="28" rx="4" fill="#000000"/>
  <rect x="263" y="380" width="158" height="28" rx="4" fill="#000000"/>
  
  <!-- E-Paper scanlines overlay for texture -->
  <defs>
    <pattern id="scanlines" x="0" y="0" width="2" height="2" patternUnits="userSpaceOnUse">
      <rect x="0" y="0" width="2" height="1" fill="#000000" opacity="0.03"/>
    </pattern>
  </defs>
  <rect x="71" y="84" width="370" height="344" rx="8" fill="url(#scanlines)" pointer-events="none"/>
</svg>
